<svg xmlns="http://www.w3.org/2000/svg" viewBox="0 0 96 96" width="96" height="96" role="img" aria-label="passive dissolution"><defs><linearGradient id="b-passive-dissolution" x1="0" y1="0" x2="1" y2="1"><stop stop-color="#667f5f"/><stop offset="1" stop-color="#33443c"/></linearGradient><radialGradient id="h-passive-dissolution"><stop stop-color="#92bb55" stop-opacity=".25"/><stop offset="1" stop-color="#92bb55" stop-opacity="0"/></radialGradient></defs><path d="M29 4H67L91 28V67L67 91H29L5 67V28Z" fill="#263344" stroke="#15202c" stroke-width="2" stroke-linejoin="round" stroke-linecap="round"/><path d="M30 8H66L87 29V66L66 87H30L9 66V29Z" fill="url(#b-passive-dissolution)" stroke="#5e7a4d" stroke-width="2" stroke-linejoin="round" stroke-linecap="round"/><circle cx="48" cy="48" r="36" fill="none" stroke="#dfb968" stroke-width="1.5"/><circle cx="48" cy="47" r="34" fill="url(#h-passive-dissolution)"/><path d="M22 81H74" fill="none" stroke="#425749" stroke-width="1" stroke-linejoin="round" stroke-linecap="round"/><circle cx="48" cy="64" r="23" fill="#263344"/><circle cx="22" cy="22" r="2" fill="#dfb968" stroke="#263344" stroke-width="1"/><circle cx="22" cy="74" r="2" fill="#dfb968" stroke="#263344" stroke-width="1"/><circle cx="74" cy="22" r="2" fill="#dfb968" stroke="#263344" stroke-width="1"/><circle cx="74" cy="74" r="2" fill="#dfb968" stroke="#263344" stroke-width="1"/><g><path d="M15 27 23 22 22 35ZM76 18 85 27 76 33ZM16 68 21 80 29 72Z" fill="#c2d796" stroke="#263344" stroke-width="2" stroke-linejoin="round" stroke-linecap="round"/><g transform="translate(20 17) scale(1.75) rotate(0 16 16)"><path d="M11 3H21V11L27 22V28L24 31H8L5 28V22L11 11Z" fill="#b9d0d8" stroke="#263344" stroke-width="2" stroke-linejoin="round" stroke-linecap="round"/><path d="M7 22H25V27L23 29H9L7 27Z" fill="#92bb55" stroke="none" stroke-width="0" stroke-linejoin="round" stroke-linecap="round"/><rect x="10" y="1" width="12" height="5" fill="#a97854" stroke="#263344" stroke-width="2"/><path d="M11 14 8 20V25" fill="none" stroke="#f5fae9" stroke-width="2" stroke-linejoin="round" stroke-linecap="round"/><circle cx="20" cy="22" r="2" fill="#c2d796"/></g><circle cx="70" cy="69" r="17" fill="#5e7a4d" stroke="#263344" stroke-width="2"/><g transform="translate(57 56) scale(0.8) rotate(0 16 16)"><path d="M16 1 20 9 28 4 25 13 32 16 24 20 29 29 20 26 16 33 12 25 3 30 8 20 0 16 8 12 4 3 12 8Z" fill="#92bb55" stroke="#263344" stroke-width="2" stroke-linejoin="round" stroke-linecap="round"/><path d="M16 9 22 13 24 19 17 25 9 20 8 14Z" fill="#dfb968" stroke="#263344" stroke-width="2" stroke-linejoin="round" stroke-linecap="round"/><path d="M16 10 18 14 22 16 18 18 16 22 14 18 10 16 14 14Z" fill="#f5fae9" stroke="none" stroke-width="0" stroke-linejoin="round" stroke-linecap="round"/></g><path d="M19 70 21 72 23 74 21 76 19 78 17 76 15 74 17 72Z" fill="#c2d796" stroke="none" stroke-width="0" stroke-linejoin="round" stroke-linecap="round"/></g><path d="M77 15 79 16 80 18 79 20 77 21 75 20 74 18 75 16Z" fill="#f5fae9" stroke="none" stroke-width="0" stroke-linejoin="round" stroke-linecap="round"/></svg>