<svg xmlns="http://www.w3.org/2000/svg" viewBox="0 0 96 96" width="96" height="96" role="img" aria-label="passive returndoom"><defs><linearGradient id="b-passive-returndoom" x1="0" y1="0" x2="1" y2="1"><stop stop-color="#727197"/><stop offset="1" stop-color="#393e57"/></linearGradient><radialGradient id="h-passive-returndoom"><stop stop-color="#b19bdd" stop-opacity=".25"/><stop offset="1" stop-color="#b19bdd" stop-opacity="0"/></radialGradient></defs><path d="M29 4H67L91 28V67L67 91H29L5 67V28Z" fill="#263344" stroke="#15202c" stroke-width="2" stroke-linejoin="round" stroke-linecap="round"/><path d="M30 8H66L87 29V66L66 87H30L9 66V29Z" fill="url(#b-passive-returndoom)" stroke="#6e6994" stroke-width="2" stroke-linejoin="round" stroke-linecap="round"/><circle cx="48" cy="48" r="36" fill="none" stroke="#dfb968" stroke-width="1.5"/><circle cx="48" cy="47" r="34" fill="url(#h-passive-returndoom)"/><path d="M22 81H74" fill="none" stroke="#4a4e6c" stroke-width="1" stroke-linejoin="round" stroke-linecap="round"/><circle cx="48" cy="64" r="23" fill="#263344"/><circle cx="22" cy="22" r="2" fill="#dfb968" stroke="#263344" stroke-width="1"/><circle cx="22" cy="74" r="2" fill="#dfb968" stroke="#263344" stroke-width="1"/><circle cx="74" cy="22" r="2" fill="#dfb968" stroke="#263344" stroke-width="1"/><circle cx="74" cy="74" r="2" fill="#dfb968" stroke="#263344" stroke-width="1"/><g><ellipse cx="48" cy="47" rx="37" ry="19" transform="rotate(-30 48 47)" fill="none" stroke="#b19bdd" stroke-width="2"/><g transform="translate(20 17) scale(1.75) rotate(0 16 16)"><path d="M24 2C6 3-4 21 10 29C19 34 28 28 30 22C12 28 5 11 24 2Z" fill="#d2c7dd" stroke="#263344" stroke-width="2" stroke-linejoin="round" stroke-linecap="round"/><path d="M10 15Q8 24 18 27" fill="none" stroke="#b19bdd" stroke-width="2" stroke-linejoin="round" stroke-linecap="round"/><path d="M26 6 28 8 30 10 28 12 26 14 24 12 22 10 24 8Z" fill="#dfb968" stroke="none" stroke-width="0" stroke-linejoin="round" stroke-linecap="round"/></g><circle cx="70" cy="69" r="17" fill="#6e6994" stroke="#263344" stroke-width="2"/><g transform="translate(57 56) scale(0.8) rotate(0 16 16)"><path d="M5 2H27V6H5ZM5 27H27V31H5Z" fill="#a97854" stroke="#263344" stroke-width="2" stroke-linejoin="round" stroke-linecap="round"/><path d="M8 6H24L22 12 18 16 22 20 24 27H8L10 20 14 16 10 12Z" fill="#b9d0d8" stroke="#263344" stroke-width="2" stroke-linejoin="round" stroke-linecap="round"/><path d="M10 8H22L16 15ZM16 19 11 25H21Z" fill="#b19bdd" stroke="none" stroke-width="0" stroke-linejoin="round" stroke-linecap="round"/><path d="M16 14V23" fill="none" stroke="#dfb968" stroke-width="1" stroke-linejoin="round" stroke-linecap="round"/></g><path d="M19 70 21 72 23 74 21 76 19 78 17 76 15 74 17 72Z" fill="#d2c7dd" stroke="none" stroke-width="0" stroke-linejoin="round" stroke-linecap="round"/></g><path d="M77 15 79 16 80 18 79 20 77 21 75 20 74 18 75 16Z" fill="#f5fae9" stroke="none" stroke-width="0" stroke-linejoin="round" stroke-linecap="round"/></svg>