<svg xmlns="http://www.w3.org/2000/svg" viewBox="0 0 96 96" width="96" height="96" role="img" aria-label="passive twinprism"><defs><linearGradient id="b-passive-twinprism" x1="0" y1="0" x2="1" y2="1"><stop stop-color="#888567"/><stop offset="1" stop-color="#434740"/></linearGradient><radialGradient id="h-passive-twinprism"><stop stop-color="#e4ca69" stop-opacity=".25"/><stop offset="1" stop-color="#e4ca69" stop-opacity="0"/></radialGradient></defs><path d="M29 4H67L91 28V67L67 91H29L5 67V28Z" fill="#263344" stroke="#15202c" stroke-width="2" stroke-linejoin="round" stroke-linecap="round"/><path d="M30 8H66L87 29V66L66 87H30L9 66V29Z" fill="url(#b-passive-twinprism)" stroke="#898257" stroke-width="2" stroke-linejoin="round" stroke-linecap="round"/><circle cx="48" cy="48" r="36" fill="none" stroke="#dfb968" stroke-width="1.5"/><circle cx="48" cy="47" r="34" fill="url(#h-passive-twinprism)"/><path d="M22 81H74" fill="none" stroke="#585b4e" stroke-width="1" stroke-linejoin="round" stroke-linecap="round"/><circle cx="48" cy="64" r="23" fill="#263344"/><circle cx="22" cy="22" r="2" fill="#dfb968" stroke="#263344" stroke-width="1"/><circle cx="22" cy="74" r="2" fill="#dfb968" stroke="#263344" stroke-width="1"/><circle cx="74" cy="22" r="2" fill="#dfb968" stroke="#263344" stroke-width="1"/><circle cx="74" cy="74" r="2" fill="#dfb968" stroke="#263344" stroke-width="1"/><g><path d="M20 15 25 20M73 15 68 21M13 49H20M77 45H85M22 77 28 72" fill="none" stroke="#dfb968" stroke-width="2" stroke-linejoin="round" stroke-linecap="round"/><g transform="translate(20 17) scale(1.75) rotate(0 16 16)"><path d="M16 2 30 11.333333333333332 25.799999999999997 25.1 16 30 6.200000000000001 25.1 2 11.333333333333332Z" fill="#e4ca69" stroke="#263344" stroke-width="2" stroke-linejoin="round" stroke-linecap="round"/><path d="M16 2 30 11.333333333333332 16 30Z" fill="#898257" stroke="none" stroke-width="0" stroke-linejoin="round" stroke-linecap="round"/><path d="M16 2 2 11.333333333333332 14 18Z" fill="#eddfa1" stroke="none" stroke-width="0" stroke-linejoin="round" stroke-linecap="round"/><path d="M8.299999999999999 11.100000000000001 14 6.200000000000001" fill="none" stroke="#f5fae9" stroke-width="2" stroke-linejoin="round" stroke-linecap="round"/><path d="M4 29H8M26 3H30" fill="none" stroke="#f5fae9" stroke-width="2" stroke-linejoin="round" stroke-linecap="round"/></g><circle cx="70" cy="69" r="17" fill="#898257" stroke="#263344" stroke-width="2"/><g transform="translate(57 56) scale(0.8) rotate(0 16 16)"><path d="M17 2 5 19 14 19 10 30 28 12 18 12 23 2Z" fill="#dfb968" stroke="#263344" stroke-width="2" stroke-linejoin="round" stroke-linecap="round"/><path d="M18 4 9 16 17 16 15 24 24 14 16 14Z" fill="#f5fae9" stroke="none" stroke-width="0" stroke-linejoin="round" stroke-linecap="round"/></g><path d="M19 70 21 72 23 74 21 76 19 78 17 76 15 74 17 72Z" fill="#eddfa1" stroke="none" stroke-width="0" stroke-linejoin="round" stroke-linecap="round"/></g><path d="M77 15 79 16 80 18 79 20 77 21 75 20 74 18 75 16Z" fill="#f5fae9" stroke="none" stroke-width="0" stroke-linejoin="round" stroke-linecap="round"/></svg>