<svg xmlns="http://www.w3.org/2000/svg" viewBox="0 0 96 96" width="96" height="96" role="img" aria-label="equipment bloodstep"><g><g transform="translate(4 0)"><path d="M16 17H36V56L45 68V78H7V66L16 56Z" fill="#cb7086" stroke="#263344" stroke-width="2" stroke-linejoin="round" stroke-linecap="round"/><path d="M17 20H24V53L13 64H9V70H34L41 68 33 57V20Z" fill="#e0b0b0" stroke="none" stroke-width="0" stroke-linejoin="round" stroke-linecap="round"/><path d="M8 72H43V78H8Z" fill="#7c5366" stroke="#263344" stroke-width="2" stroke-linejoin="round" stroke-linecap="round"/><path d="M18 24H34M19 30H33M19 36H33" fill="none" stroke="#a97854" stroke-width="3" stroke-linejoin="round" stroke-linecap="round"/><rect x="18" y="52" width="18" height="6" fill="#dfb968" stroke="#263344" stroke-width="2"/><rect x="25" y="52" width="6" height="6" fill="#708b9e" stroke="#263344" stroke-width="2"/><path d="M12 70H19M24 70H33" fill="none" stroke="#f5fae9" stroke-width="2" stroke-linejoin="round" stroke-linecap="round"/></g><g transform="translate(91 4) scale(-1 1)"><path d="M16 17H36V56L45 68V78H7V66L16 56Z" fill="#cb7086" stroke="#263344" stroke-width="2" stroke-linejoin="round" stroke-linecap="round"/><path d="M17 20H24V53L13 64H9V70H34L41 68 33 57V20Z" fill="#e0b0b0" stroke="none" stroke-width="0" stroke-linejoin="round" stroke-linecap="round"/><path d="M8 72H43V78H8Z" fill="#7c5366" stroke="#263344" stroke-width="2" stroke-linejoin="round" stroke-linecap="round"/><path d="M18 24H34M19 30H33M19 36H33" fill="none" stroke="#a97854" stroke-width="3" stroke-linejoin="round" stroke-linecap="round"/><rect x="18" y="52" width="18" height="6" fill="#dfb968" stroke="#263344" stroke-width="2"/><rect x="25" y="52" width="6" height="6" fill="#708b9e" stroke="#263344" stroke-width="2"/><path d="M12 70H19M24 70H33" fill="none" stroke="#f5fae9" stroke-width="2" stroke-linejoin="round" stroke-linecap="round"/></g><g transform="translate(17 26) scale(0.48) rotate(0 16 16)"><path d="M16 2 22 12 28 21 27 27 22 31 10 31 5 27 4 21 10 12Z" fill="#cb7086" stroke="#263344" stroke-width="2" stroke-linejoin="round" stroke-linecap="round"/><path d="M15 9 9 21 10 26 14 27 11 21Z" fill="#e0b0b0" stroke="none" stroke-width="0" stroke-linejoin="round" stroke-linecap="round"/><circle cx="21" cy="24" r="2" fill="#f5fae9"/></g><g transform="translate(63 30) scale(0.48) rotate(0 16 16)"><path d="M16 2 22 12 28 21 27 27 22 31 10 31 5 27 4 21 10 12Z" fill="#cb7086" stroke="#263344" stroke-width="2" stroke-linejoin="round" stroke-linecap="round"/><path d="M15 9 9 21 10 26 14 27 11 21Z" fill="#e0b0b0" stroke="none" stroke-width="0" stroke-linejoin="round" stroke-linecap="round"/><circle cx="21" cy="24" r="2" fill="#f5fae9"/></g><path d="M18 61 27 69M64 64 76 72" fill="none" stroke="#7c5366" stroke-width="3" stroke-linejoin="round" stroke-linecap="round"/></g></svg>