<svg xmlns="http://www.w3.org/2000/svg" viewBox="0 0 96 96" width="96" height="96" role="img" aria-label="equipment gearheart"><g><g transform="translate(12 10) scale(2.25) rotate(0 16 16)"><path d="M12 1H20V5L24 7 28 5 32 12 28 15V19L32 22 28 29 24 27 20 29V32H12V29L8 27 4 29 0 22 4 19V15L0 12 4 5 8 7 12 5Z" fill="#b9d0d8" stroke="#263344" stroke-width="2" stroke-linejoin="round" stroke-linecap="round"/><circle cx="16" cy="17" r="9" fill="#557977" stroke="#263344" stroke-width="2"/><circle cx="16" cy="17" r="5" fill="#80b9a6" stroke="#263344" stroke-width="2"/><circle cx="14" cy="15" r="2" fill="#b9d6c0"/></g><g transform="translate(31 28) scale(1.16) rotate(0 16 16)"><path d="M16 10 21 4 27 4 31 10 30 18 16 30 2 18 1 10 5 4 11 4Z" fill="#80b9a6" stroke="#263344" stroke-width="2" stroke-linejoin="round" stroke-linecap="round"/><path d="M4 10 7 7 10 7 13 11 10 13 7 10 5 15Z" fill="#b9d6c0" stroke="none" stroke-width="0" stroke-linejoin="round" stroke-linecap="round"/><path d="M6 18H11L14 13 18 24 21 18H27" fill="none" stroke="#f5fae9" stroke-width="2" stroke-linejoin="round" stroke-linecap="round"/></g><path d="M16 59H24M70 64H79" fill="none" stroke="#dfb968" stroke-width="3" stroke-linejoin="round" stroke-linecap="round"/></g></svg>