<svg xmlns="http://www.w3.org/2000/svg" viewBox="0 0 96 96" width="96" height="96" role="img" aria-label="equipment returnboot"><g><g transform="translate(4 0)"><path d="M16 29H36V56L45 68V78H7V66L16 56Z" fill="#b19bdd" stroke="#263344" stroke-width="2" stroke-linejoin="round" stroke-linecap="round"/><path d="M17 32H24V53L13 64H9V70H34L41 68 33 57V32Z" fill="#d2c7dd" stroke="none" stroke-width="0" stroke-linejoin="round" stroke-linecap="round"/><path d="M8 72H43V78H8Z" fill="#6e6994" stroke="#263344" stroke-width="2" stroke-linejoin="round" stroke-linecap="round"/><path d="M18 36H34M19 42H33M19 48H33" fill="none" stroke="#a97854" stroke-width="3" stroke-linejoin="round" stroke-linecap="round"/><rect x="18" y="52" width="18" height="6" fill="#dfb968" stroke="#263344" stroke-width="2"/><rect x="25" y="52" width="6" height="6" fill="#708b9e" stroke="#263344" stroke-width="2"/><path d="M12 70H19M24 70H33" fill="none" stroke="#f5fae9" stroke-width="2" stroke-linejoin="round" stroke-linecap="round"/></g><g transform="translate(91 4) scale(-1 1)"><path d="M16 29H36V56L45 68V78H7V66L16 56Z" fill="#b19bdd" stroke="#263344" stroke-width="2" stroke-linejoin="round" stroke-linecap="round"/><path d="M17 32H24V53L13 64H9V70H34L41 68 33 57V32Z" fill="#d2c7dd" stroke="none" stroke-width="0" stroke-linejoin="round" stroke-linecap="round"/><path d="M8 72H43V78H8Z" fill="#6e6994" stroke="#263344" stroke-width="2" stroke-linejoin="round" stroke-linecap="round"/><path d="M18 36H34M19 42H33M19 48H33" fill="none" stroke="#a97854" stroke-width="3" stroke-linejoin="round" stroke-linecap="round"/><rect x="18" y="52" width="18" height="6" fill="#dfb968" stroke="#263344" stroke-width="2"/><rect x="25" y="52" width="6" height="6" fill="#708b9e" stroke="#263344" stroke-width="2"/><path d="M12 70H19M24 70H33" fill="none" stroke="#f5fae9" stroke-width="2" stroke-linejoin="round" stroke-linecap="round"/></g><g transform="translate(30 8) scale(1.1) rotate(0 16 16)"><path d="M24 2C6 3-4 21 10 29C19 34 28 28 30 22C12 28 5 11 24 2Z" fill="#d2c7dd" stroke="#263344" stroke-width="2" stroke-linejoin="round" stroke-linecap="round"/><path d="M10 15Q8 24 18 27" fill="none" stroke="#b19bdd" stroke-width="2" stroke-linejoin="round" stroke-linecap="round"/><path d="M26 6 28 8 30 10 28 12 26 14 24 12 22 10 24 8Z" fill="#dfb968" stroke="none" stroke-width="0" stroke-linejoin="round" stroke-linecap="round"/></g><path d="M16 31 36 31 33 47 18 47ZM61 36H80L77 52H63Z" fill="#6e6994" stroke="#263344" stroke-width="2" stroke-linejoin="round" stroke-linecap="round"/><path d="M27 37 29 39 31 41 29 43 27 45 25 43 23 41 25 39Z" fill="#d2c7dd" stroke="none" stroke-width="0" stroke-linejoin="round" stroke-linecap="round"/><path d="M71 40 73 42 75 44 73 46 71 48 69 46 67 44 69 42Z" fill="#d2c7dd" stroke="none" stroke-width="0" stroke-linejoin="round" stroke-linecap="round"/></g></svg>