<svg xmlns="http://www.w3.org/2000/svg" viewBox="0 0 96 96" width="96" height="96" role="img" aria-label="weapon silknet"><defs><linearGradient id="b-weapon-silknet" x1="0" y1="0" x2="1" y2="1"><stop stop-color="#5a7e80"/><stop offset="1" stop-color="#2d444c"/></linearGradient><radialGradient id="h-weapon-silknet"><stop stop-color="#74b9a7" stop-opacity=".25"/><stop offset="1" stop-color="#74b9a7" stop-opacity="0"/></radialGradient></defs><path d="M16 5H80L91 16V80L80 91H16L5 80V16Z" fill="#263344" stroke="#15202c" stroke-width="2" stroke-linejoin="round" stroke-linecap="round"/><path d="M17 9H79L87 17V79L79 87H17L9 79V17Z" fill="url(#b-weapon-silknet)" stroke="#4f7977" stroke-width="2" stroke-linejoin="round" stroke-linecap="round"/><path d="M17 13H77L83 19M13 18V77L19 83" fill="none" stroke="#b2d6c1" stroke-width="1.5" stroke-linejoin="round" stroke-linecap="round"/><circle cx="48" cy="47" r="34" fill="url(#h-weapon-silknet)"/><path d="M22 81H74" fill="none" stroke="#3b565e" stroke-width="1" stroke-linejoin="round" stroke-linecap="round"/><circle cx="48" cy="64" r="23" fill="#263344"/><circle cx="22" cy="22" r="2" fill="#dfb968" stroke="#263344" stroke-width="1"/><circle cx="22" cy="74" r="2" fill="#dfb968" stroke="#263344" stroke-width="1"/><circle cx="74" cy="22" r="2" fill="#dfb968" stroke="#263344" stroke-width="1"/><circle cx="74" cy="74" r="2" fill="#dfb968" stroke="#263344" stroke-width="1"/><g><g transform="translate(12 8) scale(2.1) rotate(0 16 16)"><path d="M4 4 26 3 30 26 8 30 2 19Z" fill="#4f7977" stroke="#263344" stroke-width="2" stroke-linejoin="round" stroke-linecap="round"/><path d="M4 8 28 24M4 17 19 28M11 4 29 16M19 4 6 23M27 8 12 29M9 4 2 15" fill="none" stroke="#b2d6c1" stroke-width="2" stroke-linejoin="round" stroke-linecap="round"/><circle cx="29" cy="27" r="3" fill="#dfb968" stroke="#263344" stroke-width="2"/></g><path d="M62 74H70V87H62Z" fill="#a97854" stroke="#263344" stroke-width="2" stroke-linejoin="round" stroke-linecap="round"/><path d="M17 18 22 12M72 32 79 24" fill="none" stroke="#b2d6c1" stroke-width="2" stroke-linejoin="round" stroke-linecap="round"/></g><path d="M77 15 79 16 80 18 79 20 77 21 75 20 74 18 75 16Z" fill="#f5fae9" stroke="none" stroke-width="0" stroke-linejoin="round" stroke-linecap="round"/></svg>