<svg xmlns="http://www.w3.org/2000/svg" viewBox="0 0 96 96" width="96" height="96" role="img" aria-label="weapon singularity"><defs><linearGradient id="b-weapon-singularity" x1="0" y1="0" x2="1" y2="1"><stop stop-color="#5a7e80"/><stop offset="1" stop-color="#2d444c"/></linearGradient><radialGradient id="h-weapon-singularity"><stop stop-color="#74b9a7" stop-opacity=".25"/><stop offset="1" stop-color="#74b9a7" stop-opacity="0"/></radialGradient></defs><path d="M16 5H80L91 16V80L80 91H16L5 80V16Z" fill="#263344" stroke="#15202c" stroke-width="2" stroke-linejoin="round" stroke-linecap="round"/><path d="M17 9H79L87 17V79L79 87H17L9 79V17Z" fill="url(#b-weapon-singularity)" stroke="#4f7977" stroke-width="2" stroke-linejoin="round" stroke-linecap="round"/><path d="M17 13H77L83 19M13 18V77L19 83" fill="none" stroke="#b2d6c1" stroke-width="1.5" stroke-linejoin="round" stroke-linecap="round"/><circle cx="48" cy="47" r="34" fill="url(#h-weapon-singularity)"/><path d="M22 81H74" fill="none" stroke="#3b565e" stroke-width="1" stroke-linejoin="round" stroke-linecap="round"/><circle cx="48" cy="64" r="23" fill="#263344"/><circle cx="22" cy="22" r="2" fill="#dfb968" stroke="#263344" stroke-width="1"/><circle cx="22" cy="74" r="2" fill="#dfb968" stroke="#263344" stroke-width="1"/><circle cx="74" cy="22" r="2" fill="#dfb968" stroke="#263344" stroke-width="1"/><circle cx="74" cy="74" r="2" fill="#dfb968" stroke="#263344" stroke-width="1"/><g><circle cx="48" cy="46" r="30" fill="#4f7977" stroke="#263344" stroke-width="3"/><circle cx="48" cy="46" r="22" fill="#74b9a7"/><circle cx="48" cy="46" r="17" fill="#263344"/><path d="M10 44Q44 12 85 43Q70 68 12 53" fill="#b2d6c1" stroke="none" stroke-width="3" stroke-linejoin="round" stroke-linecap="round"/><path d="M15 47Q50 33 80 46" fill="#dfb968" stroke="none" stroke-width="2" stroke-linejoin="round" stroke-linecap="round"/><path d="M25 14 27 16 29 18 27 20 25 22 23 20 21 18 23 16Z" fill="#f5fae9" stroke="none" stroke-width="0" stroke-linejoin="round" stroke-linecap="round"/><path d="M74 68 76 70 78 72 76 74 74 76 72 74 70 72 72 70Z" fill="#74b9a7" stroke="none" stroke-width="0" stroke-linejoin="round" stroke-linecap="round"/></g><path d="M77 15 79 16 80 18 79 20 77 21 75 20 74 18 75 16Z" fill="#f5fae9" stroke="none" stroke-width="0" stroke-linejoin="round" stroke-linecap="round"/></svg>