<svg xmlns="http://www.w3.org/2000/svg" viewBox="0 0 96 96" width="96" height="96" role="img" aria-label="equipment firecoat"><defs><linearGradient id="b-equipment-firecoat" x1="0" y1="0" x2="1" y2="1"><stop stop-color="#8a7063"/><stop offset="1" stop-color="#443d3e"/></linearGradient><radialGradient id="h-equipment-firecoat"><stop stop-color="#e8995f" stop-opacity=".25"/><stop offset="1" stop-color="#e8995f" stop-opacity="0"/></radialGradient></defs><path d="M16 5H80L91 16V80L80 91H16L5 80V16Z" fill="#263344" stroke="#15202c" stroke-width="2" stroke-linejoin="round" stroke-linecap="round"/><path d="M17 9H79L87 17V79L79 87H17L9 79V17Z" fill="url(#b-equipment-firecoat)" stroke="#8b6852" stroke-width="2" stroke-linejoin="round" stroke-linecap="round"/><path d="M17 13H77L83 19M13 18V77L19 83" fill="none" stroke="#efc69b" stroke-width="1.5" stroke-linejoin="round" stroke-linecap="round"/><circle cx="48" cy="47" r="34" fill="url(#h-equipment-firecoat)"/><path d="M22 81H74" fill="none" stroke="#594e4b" stroke-width="1" stroke-linejoin="round" stroke-linecap="round"/><circle cx="48" cy="64" r="23" fill="#263344"/><circle cx="22" cy="22" r="2" fill="#dfb968" stroke="#263344" stroke-width="1"/><circle cx="22" cy="74" r="2" fill="#dfb968" stroke="#263344" stroke-width="1"/><circle cx="74" cy="22" r="2" fill="#dfb968" stroke="#263344" stroke-width="1"/><circle cx="74" cy="74" r="2" fill="#dfb968" stroke="#263344" stroke-width="1"/><g><path d="M36 15H59L63 38 73 80H22L31 38Z" fill="#efc69b" stroke="#263344" stroke-width="2" stroke-linejoin="round" stroke-linecap="round"/><path d="M36 15 40 8H55L59 15M28 43 17 37M66 43 79 37" fill="none" stroke="#a97854" stroke-width="4" stroke-linejoin="round" stroke-linecap="round"/><path d="M34 50H60V68H34Z" fill="#e8995f" stroke="#263344" stroke-width="2" stroke-linejoin="round" stroke-linecap="round"/><path d="M37 54H57M37 61H57" fill="none" stroke="#8b6852" stroke-width="2" stroke-linejoin="round" stroke-linecap="round"/><rect x="35" y="37" width="24" height="5" fill="#dfb968" stroke="#263344" stroke-width="2"/><g transform="translate(39 21) scale(0.6) rotate(0 16 16)"><path d="M17 2 19 12 25 7 29 17 28 24 22 30 10 30 4 25 3 18 8 10 10 19 14 15Z" fill="#e8995f" stroke="#263344" stroke-width="2" stroke-linejoin="round" stroke-linecap="round"/><path d="M16 12 23 21 21 29 12 29 8 23 13 20Z" fill="#dfb968" stroke="none" stroke-width="0" stroke-linejoin="round" stroke-linecap="round"/><path d="M16 21 19 26 17 30 13 28Z" fill="#f5fae9" stroke="none" stroke-width="0" stroke-linejoin="round" stroke-linecap="round"/></g><circle cx="72" cy="72" r="13" fill="#8b6852" stroke="#263344" stroke-width="2"/><g transform="translate(62 62) scale(0.63) rotate(0 16 16)"><path d="M17 2 19 12 25 7 29 17 28 24 22 30 10 30 4 25 3 18 8 10 10 19 14 15Z" fill="#e8995f" stroke="#263344" stroke-width="2" stroke-linejoin="round" stroke-linecap="round"/><path d="M16 12 23 21 21 29 12 29 8 23 13 20Z" fill="#dfb968" stroke="none" stroke-width="0" stroke-linejoin="round" stroke-linecap="round"/><path d="M16 21 19 26 17 30 13 28Z" fill="#f5fae9" stroke="none" stroke-width="0" stroke-linejoin="round" stroke-linecap="round"/></g></g><path d="M77 15 79 16 80 18 79 20 77 21 75 20 74 18 75 16Z" fill="#f5fae9" stroke="none" stroke-width="0" stroke-linejoin="round" stroke-linecap="round"/></svg>