<svg xmlns="http://www.w3.org/2000/svg" viewBox="0 0 96 96" width="96" height="96" role="img" aria-label="equipment hexmask"><defs><linearGradient id="b-equipment-hexmask" x1="0" y1="0" x2="1" y2="1"><stop stop-color="#6e6a93"/><stop offset="1" stop-color="#373a55"/></linearGradient><radialGradient id="h-equipment-hexmask"><stop stop-color="#a68ad5" stop-opacity=".25"/><stop offset="1" stop-color="#a68ad5" stop-opacity="0"/></radialGradient></defs><path d="M16 5H80L91 16V80L80 91H16L5 80V16Z" fill="#263344" stroke="#15202c" stroke-width="2" stroke-linejoin="round" stroke-linecap="round"/><path d="M17 9H79L87 17V79L79 87H17L9 79V17Z" fill="url(#b-equipment-hexmask)" stroke="#69608f" stroke-width="2" stroke-linejoin="round" stroke-linecap="round"/><path d="M17 13H77L83 19M13 18V77L19 83" fill="none" stroke="#ccbed9" stroke-width="1.5" stroke-linejoin="round" stroke-linecap="round"/><circle cx="48" cy="47" r="34" fill="url(#h-equipment-hexmask)"/><path d="M22 81H74" fill="none" stroke="#484a6a" stroke-width="1" stroke-linejoin="round" stroke-linecap="round"/><circle cx="48" cy="64" r="23" fill="#263344"/><circle cx="22" cy="22" r="2" fill="#dfb968" stroke="#263344" stroke-width="1"/><circle cx="22" cy="74" r="2" fill="#dfb968" stroke="#263344" stroke-width="1"/><circle cx="74" cy="22" r="2" fill="#dfb968" stroke="#263344" stroke-width="1"/><circle cx="74" cy="74" r="2" fill="#dfb968" stroke="#263344" stroke-width="1"/><g><g transform="translate(15 10) scale(2.1) rotate(0 16 16)"><path d="M3 3 16 6 29 3 27 22 23 29 16 31 9 29 5 22Z" fill="#ccbed9" stroke="#263344" stroke-width="2" stroke-linejoin="round" stroke-linecap="round"/><path d="M6 12 13 11 11 17 7 18ZM19 11 26 12 25 18 21 17Z" fill="#69608f" stroke="#263344" stroke-width="2" stroke-linejoin="round" stroke-linecap="round"/><path d="M12 25 16 22 20 25" fill="none" stroke="#a68ad5" stroke-width="2" stroke-linejoin="round" stroke-linecap="round"/><path d="M16 5 19 7 18.1 9.95 16 11 13.9 9.95 13 7Z" fill="#a68ad5" stroke="#263344" stroke-width="2" stroke-linejoin="round" stroke-linecap="round"/><path d="M16 5 19 7 16 11Z" fill="#69608f" stroke="none" stroke-width="0" stroke-linejoin="round" stroke-linecap="round"/><path d="M16 5 13 7 14 10Z" fill="#ccbed9" stroke="none" stroke-width="0" stroke-linejoin="round" stroke-linecap="round"/><path d="M14.35 6.95 14 5.9" fill="none" stroke="#f5fae9" stroke-width="2" stroke-linejoin="round" stroke-linecap="round"/></g><path d="M21 17 12 9 15 33M75 17 84 9 80 34Z" fill="#dfb968" stroke="#263344" stroke-width="2" stroke-linejoin="round" stroke-linecap="round"/><path d="M28 56 36 51M59 51 68 56" fill="none" stroke="#a68ad5" stroke-width="3" stroke-linejoin="round" stroke-linecap="round"/><circle cx="72" cy="72" r="13" fill="#69608f" stroke="#263344" stroke-width="2"/><g transform="translate(62 62) scale(0.63) rotate(0 16 16)"><path d="M7 2H25L30 9V26L25 31H7L2 26V9Z" fill="#ccbed9" stroke="#263344" stroke-width="2" stroke-linejoin="round" stroke-linecap="round"/><path d="M9 8 22 8 11 23 23 23M8 15H25M16 8V28" fill="none" stroke="#69608f" stroke-width="3" stroke-linejoin="round" stroke-linecap="round"/><rect x="5" y="6" width="2" height="2" fill="#dfb968"/><rect x="26" y="26" width="2" height="2" fill="#dfb968"/></g></g><path d="M77 15 79 16 80 18 79 20 77 21 75 20 74 18 75 16Z" fill="#f5fae9" stroke="none" stroke-width="0" stroke-linejoin="round" stroke-linecap="round"/></svg>