<svg xmlns="http://www.w3.org/2000/svg" viewBox="0 0 96 96" width="96" height="96" role="img" aria-label="equipment set-fortune-boots"><defs><linearGradient id="b-equipment-set-fortune-boots" x1="0" y1="0" x2="1" y2="1"><stop stop-color="#847e65"/><stop offset="1" stop-color="#41443f"/></linearGradient><radialGradient id="h-equipment-set-fortune-boots"><stop stop-color="#dbb965" stop-opacity=".25"/><stop offset="1" stop-color="#dbb965" stop-opacity="0"/></radialGradient></defs><path d="M16 5H80L91 16V80L80 91H16L5 80V16Z" fill="#263344" stroke="#15202c" stroke-width="2" stroke-linejoin="round" stroke-linecap="round"/><path d="M17 9H79L87 17V79L79 87H17L9 79V17Z" fill="url(#b-equipment-set-fortune-boots)" stroke="#847955" stroke-width="2" stroke-linejoin="round" stroke-linecap="round"/><path d="M17 13H77L83 19M13 18V77L19 83" fill="none" stroke="#e8d69f" stroke-width="1.5" stroke-linejoin="round" stroke-linecap="round"/><circle cx="48" cy="47" r="34" fill="url(#h-equipment-set-fortune-boots)"/><path d="M22 81H74" fill="none" stroke="#55564d" stroke-width="1" stroke-linejoin="round" stroke-linecap="round"/><circle cx="48" cy="64" r="23" fill="#263344"/><circle cx="22" cy="22" r="2" fill="#dfb968" stroke="#263344" stroke-width="1"/><circle cx="22" cy="74" r="2" fill="#dfb968" stroke="#263344" stroke-width="1"/><circle cx="74" cy="22" r="2" fill="#dfb968" stroke="#263344" stroke-width="1"/><circle cx="74" cy="74" r="2" fill="#dfb968" stroke="#263344" stroke-width="1"/><g><g transform="translate(4 0)"><path d="M16 29H36V56L45 68V78H7V66L16 56Z" fill="#dbb965" stroke="#263344" stroke-width="2" stroke-linejoin="round" stroke-linecap="round"/><path d="M17 32H24V53L13 64H9V70H34L41 68 33 57V32Z" fill="#e8d69f" stroke="none" stroke-width="0" stroke-linejoin="round" stroke-linecap="round"/><path d="M8 72H43V78H8Z" fill="#847955" stroke="#263344" stroke-width="2" stroke-linejoin="round" stroke-linecap="round"/><path d="M18 36H34M19 42H33M19 48H33" fill="none" stroke="#a97854" stroke-width="3" stroke-linejoin="round" stroke-linecap="round"/><rect x="18" y="52" width="18" height="6" fill="#dfb968" stroke="#263344" stroke-width="2"/><rect x="25" y="52" width="6" height="6" fill="#708b9e" stroke="#263344" stroke-width="2"/><path d="M12 70H19M24 70H33" fill="none" stroke="#f5fae9" stroke-width="2" stroke-linejoin="round" stroke-linecap="round"/></g><g transform="translate(91 4) scale(-1 1)"><path d="M16 29H36V56L45 68V78H7V66L16 56Z" fill="#dbb965" stroke="#263344" stroke-width="2" stroke-linejoin="round" stroke-linecap="round"/><path d="M17 32H24V53L13 64H9V70H34L41 68 33 57V32Z" fill="#e8d69f" stroke="none" stroke-width="0" stroke-linejoin="round" stroke-linecap="round"/><path d="M8 72H43V78H8Z" fill="#847955" stroke="#263344" stroke-width="2" stroke-linejoin="round" stroke-linecap="round"/><path d="M18 36H34M19 42H33M19 48H33" fill="none" stroke="#a97854" stroke-width="3" stroke-linejoin="round" stroke-linecap="round"/><rect x="18" y="52" width="18" height="6" fill="#dfb968" stroke="#263344" stroke-width="2"/><rect x="25" y="52" width="6" height="6" fill="#708b9e" stroke="#263344" stroke-width="2"/><path d="M12 70H19M24 70H33" fill="none" stroke="#f5fae9" stroke-width="2" stroke-linejoin="round" stroke-linecap="round"/></g><path d="M16 28H37V40H16ZM60 33H81V45H60Z" fill="#a97854" stroke="#263344" stroke-width="2" stroke-linejoin="round" stroke-linecap="round"/><path d="M20 30V39M26 30V39M32 30V39M64 35V43M70 35V43M76 35V43" fill="none" stroke="#dfb968" stroke-width="1.5" stroke-linejoin="round" stroke-linecap="round"/><g transform="translate(32 4) scale(1) rotate(0 16 16)"><path d="M16 14C0-2-3 20 13 18C-3 35 20 38 17 21C34 37 40 14 21 17C40 1 18-5 16 14Z" fill="#dbb965" stroke="#263344" stroke-width="2" stroke-linejoin="round" stroke-linecap="round"/><path d="M16 16 14 28 10 31M8 9 15 16M25 8 18 16M7 25 15 18M25 25 18 18" fill="none" stroke="#e8d69f" stroke-width="2" stroke-linejoin="round" stroke-linecap="round"/></g></g><path d="M77 15 79 16 80 18 79 20 77 21 75 20 74 18 75 16Z" fill="#f5fae9" stroke="none" stroke-width="0" stroke-linejoin="round" stroke-linecap="round"/></svg>