<svg xmlns="http://www.w3.org/2000/svg" viewBox="0 0 96 96" width="96" height="96" role="img" aria-label="equipment set-briar-head"><defs><linearGradient id="b-equipment-set-briar-head" x1="0" y1="0" x2="1" y2="1"><stop stop-color="#667f5f"/><stop offset="1" stop-color="#33443c"/></linearGradient><radialGradient id="h-equipment-set-briar-head"><stop stop-color="#92bb55" stop-opacity=".25"/><stop offset="1" stop-color="#92bb55" stop-opacity="0"/></radialGradient></defs><path d="M16 5H80L91 16V80L80 91H16L5 80V16Z" fill="#263344" stroke="#15202c" stroke-width="2" stroke-linejoin="round" stroke-linecap="round"/><path d="M17 9H79L87 17V79L79 87H17L9 79V17Z" fill="url(#b-equipment-set-briar-head)" stroke="#5e7a4d" stroke-width="2" stroke-linejoin="round" stroke-linecap="round"/><path d="M17 13H77L83 19M13 18V77L19 83" fill="none" stroke="#c2d796" stroke-width="1.5" stroke-linejoin="round" stroke-linecap="round"/><circle cx="48" cy="47" r="34" fill="url(#h-equipment-set-briar-head)"/><path d="M22 81H74" fill="none" stroke="#425749" stroke-width="1" stroke-linejoin="round" stroke-linecap="round"/><circle cx="48" cy="64" r="23" fill="#263344"/><circle cx="22" cy="22" r="2" fill="#dfb968" stroke="#263344" stroke-width="1"/><circle cx="22" cy="74" r="2" fill="#dfb968" stroke="#263344" stroke-width="1"/><circle cx="74" cy="22" r="2" fill="#dfb968" stroke="#263344" stroke-width="1"/><circle cx="74" cy="74" r="2" fill="#dfb968" stroke="#263344" stroke-width="1"/><g><path d="M24 23 47 12 70 23 77 47 68 80H28L18 47Z" fill="#92bb55" stroke="#263344" stroke-width="2" stroke-linejoin="round" stroke-linecap="round"/><path d="M27 35 48 26 68 35 64 50 32 50Z" fill="#5e7a4d" stroke="#263344" stroke-width="2" stroke-linejoin="round" stroke-linecap="round"/><path d="M26 52 34 73M37 54 43 77M50 54 54 77M63 54 65 73" fill="none" stroke="#c2d796" stroke-width="2" stroke-linejoin="round" stroke-linecap="round"/><path d="M28 38 41 41 37 47 29 45ZM55 41 67 37 64 45 58 47Z" fill="#f5fae9" stroke="#263344" stroke-width="2" stroke-linejoin="round" stroke-linecap="round"/><path d="M48 17 54 21 52.2 26.9 48 29 43.8 26.9 42 21Z" fill="#92bb55" stroke="#263344" stroke-width="2" stroke-linejoin="round" stroke-linecap="round"/><path d="M48 17 54 21 48 29Z" fill="#5e7a4d" stroke="none" stroke-width="0" stroke-linejoin="round" stroke-linecap="round"/><path d="M48 17 42 21 46 25Z" fill="#c2d796" stroke="none" stroke-width="0" stroke-linejoin="round" stroke-linecap="round"/><path d="M44.7 20.9 46 18.8" fill="none" stroke="#f5fae9" stroke-width="2" stroke-linejoin="round" stroke-linecap="round"/><path d="M22 32 16 26 22 21 24 16M73 35 80 29 76 20M29 77 24 87M64 78 70 85" fill="none" stroke="#5e7a4d" stroke-width="3" stroke-linejoin="round" stroke-linecap="round"/><g transform="translate(39 12) scale(0.65) rotate(0 16 16)"><path d="M16 3C9-1 5 6 9 12C-1 9-2 22 10 22C7 33 23 37 23 24C35 27 36 12 24 12C30 2 20-4 16 3Z" fill="#92bb55" stroke="#263344" stroke-width="2" stroke-linejoin="round" stroke-linecap="round"/><circle cx="17" cy="17" r="7" fill="#dfb968" stroke="#263344" stroke-width="2"/><circle cx="17" cy="17" r="3" fill="#c2d796"/><path d="M16 25 16 31" fill="none" stroke="#5e7a4d" stroke-width="2" stroke-linejoin="round" stroke-linecap="round"/></g></g><path d="M77 15 79 16 80 18 79 20 77 21 75 20 74 18 75 16Z" fill="#f5fae9" stroke="none" stroke-width="0" stroke-linejoin="round" stroke-linecap="round"/></svg>