<svg xmlns="http://www.w3.org/2000/svg" viewBox="0 0 96 96" width="96" height="96" role="img" aria-label="equipment set-circuit-head"><defs><linearGradient id="b-equipment-set-circuit-head" x1="0" y1="0" x2="1" y2="1"><stop stop-color="#5e7e80"/><stop offset="1" stop-color="#2f444c"/></linearGradient><radialGradient id="h-equipment-set-circuit-head"><stop stop-color="#80b9a6" stop-opacity=".25"/><stop offset="1" stop-color="#80b9a6" stop-opacity="0"/></radialGradient></defs><path d="M16 5H80L91 16V80L80 91H16L5 80V16Z" fill="#263344" stroke="#15202c" stroke-width="2" stroke-linejoin="round" stroke-linecap="round"/><path d="M17 9H79L87 17V79L79 87H17L9 79V17Z" fill="url(#b-equipment-set-circuit-head)" stroke="#557977" stroke-width="2" stroke-linejoin="round" stroke-linecap="round"/><path d="M17 13H77L83 19M13 18V77L19 83" fill="none" stroke="#b9d6c0" stroke-width="1.5" stroke-linejoin="round" stroke-linecap="round"/><circle cx="48" cy="47" r="34" fill="url(#h-equipment-set-circuit-head)"/><path d="M22 81H74" fill="none" stroke="#3e565e" stroke-width="1" stroke-linejoin="round" stroke-linecap="round"/><circle cx="48" cy="64" r="23" fill="#263344"/><circle cx="22" cy="22" r="2" fill="#dfb968" stroke="#263344" stroke-width="1"/><circle cx="22" cy="74" r="2" fill="#dfb968" stroke="#263344" stroke-width="1"/><circle cx="74" cy="22" r="2" fill="#dfb968" stroke="#263344" stroke-width="1"/><circle cx="74" cy="74" r="2" fill="#dfb968" stroke="#263344" stroke-width="1"/><g><path d="M24 64 24 34 31 22 48 16 66 22 74 34V64L65 75H58V58H38V75H30Z" fill="#708b9e" stroke="#263344" stroke-width="2" stroke-linejoin="round" stroke-linecap="round"/><path d="M27 34 35 25 48 21 62 26 69 35V47H27Z" fill="#b9d0d8" stroke="#263344" stroke-width="2" stroke-linejoin="round" stroke-linecap="round"/><path d="M30 49H66V57H30Z" fill="#557977" stroke="#263344" stroke-width="2" stroke-linejoin="round" stroke-linecap="round"/><path d="M44 19H52V67H44Z" fill="#dfb968" stroke="#263344" stroke-width="2" stroke-linejoin="round" stroke-linecap="round"/><path d="M31 33 38 29M58 29 64 33M30 66 35 61M61 61 66 66" fill="none" stroke="#f5fae9" stroke-width="3" stroke-linejoin="round" stroke-linecap="round"/><path d="M48 30 53 33.333333333333336 51.5 38.25 48 40 44.5 38.25 43 33.333333333333336Z" fill="#80b9a6" stroke="#263344" stroke-width="2" stroke-linejoin="round" stroke-linecap="round"/><path d="M48 30 53 33.333333333333336 48 40Z" fill="#557977" stroke="none" stroke-width="0" stroke-linejoin="round" stroke-linecap="round"/><path d="M48 30 43 33.333333333333336 46 37Z" fill="#b9d6c0" stroke="none" stroke-width="0" stroke-linejoin="round" stroke-linecap="round"/><path d="M45.25 33.25 46 31.5" fill="none" stroke="#f5fae9" stroke-width="2" stroke-linejoin="round" stroke-linecap="round"/><path d="M25 37H34V29H40M54 28H64V37H73" fill="none" stroke="#80b9a6" stroke-width="3" stroke-linejoin="round" stroke-linecap="round"/><circle cx="24" cy="38" r="5" fill="#dfb968" stroke="#263344" stroke-width="2"/><circle cx="73" cy="38" r="5" fill="#dfb968" stroke="#263344" stroke-width="2"/><path d="M48 16V7H65" fill="none" stroke="#b9d6c0" stroke-width="2" stroke-linejoin="round" stroke-linecap="round"/></g><path d="M77 15 79 16 80 18 79 20 77 21 75 20 74 18 75 16Z" fill="#f5fae9" stroke="none" stroke-width="0" stroke-linejoin="round" stroke-linecap="round"/></svg>